<svg xmlns="http://www.w3.org/2000/svg" xmlns:xlink="http://www.w3.org/1999/xlink" id="Layer_1" x="0px" y="0px" width="100%" viewBox="0 0 512 512" xml:space="preserve"><path fill="#000000" opacity="1.000000" stroke="none" d="M204.000000,1.000000  C306.897736,1.000000 409.795502,1.000000 513.000000,1.000000  C513.000000,44.687084 513.000000,88.374886 512.731201,132.862823  C510.585541,130.778000 508.708588,127.893051 506.866272,124.740845  C506.611267,124.281120 506.321686,124.088661 505.954590,123.656174  C505.593536,123.252205 505.309967,123.088257 504.869934,122.615906  C504.133270,122.015671 503.435883,121.845024 502.990356,121.414001  C494.939636,113.625992 478.929077,113.105011 469.427704,119.735458  C463.291473,124.017609 460.294891,130.059189 456.538391,136.094910  C445.715393,136.070877 435.356445,136.118988 424.533875,136.095078  C411.712952,136.070953 399.355621,136.118881 386.534607,136.095139  C372.380493,136.071243 358.690125,136.119003 344.535889,136.095306  C330.380920,136.071365 316.689819,136.118912 302.534912,136.095123  C289.418030,136.000854 276.764862,135.977890 264.062439,135.491425  C264.013184,125.110229 264.013184,115.192543 264.013184,104.833687  C271.743408,104.833687 278.871094,104.833687 286.462585,104.906082  C295.283508,104.929832 303.640594,104.881187 312.461548,104.904884  C323.948578,104.929245 334.971710,104.881264 346.458923,104.905563  C356.233704,104.985252 365.545074,105.050957 374.854584,104.947395  C376.571228,104.928307 378.280243,104.224220 380.327637,103.818573  C389.490479,94.984459 398.385193,86.233185 407.100342,77.306587  C409.322113,75.030907 411.173859,73.839478 414.626678,74.867554  C417.999329,75.871758 421.725647,75.872673 425.305420,75.961128  C434.881165,76.197739 442.060638,71.484230 446.920074,63.772346  C452.690979,54.613987 453.763641,44.808601 448.057922,34.599358  C444.894989,28.097115 439.936676,24.177406 433.197815,21.835657  C432.036194,21.346739 431.081757,21.209539 430.155945,20.964193  C418.734680,17.937445 409.093536,21.216169 401.641602,29.997559  C394.671387,38.211239 392.954559,47.761181 396.933899,58.407875  C397.656311,60.222515 398.319061,61.677048 399.249573,63.719219  C394.271332,68.543221 388.691833,73.087097 384.182678,78.519409  C377.236694,86.887405 369.426239,92.315811 357.542908,90.094757  C344.717163,90.071663 332.356140,90.119652 319.531860,90.095963  C312.046417,90.071945 305.024170,90.119591 297.538025,90.095596  C287.715118,90.070061 278.356171,90.116165 268.565399,90.088760  C266.862610,90.015244 265.591644,90.015244 263.996277,90.015244  C263.996277,85.700134 264.341125,81.859032 263.905579,78.108543  C263.405121,73.798950 259.974823,72.709335 256.261963,73.068489  C252.811523,73.402260 249.920349,74.696007 249.976471,79.068260  C250.104523,89.043938 250.110947,99.021179 250.093826,109.461548  C250.069504,122.616432 250.118103,135.307556 250.094025,148.462402  C250.069702,162.951111 250.118057,176.976059 250.094284,191.464615  C250.070358,204.618500 250.118561,217.308792 250.094833,230.462936  C250.070755,243.284149 250.118591,255.641510 250.094864,268.462769  C250.071060,283.284363 250.118835,297.642090 250.095184,312.463684  C250.071472,324.618347 250.119186,336.309143 250.095367,348.463806  C250.071411,358.285126 250.118988,367.642578 250.095093,377.463867  C250.071335,386.285278 250.119049,394.642914 250.095306,403.464355  C249.997665,413.578857 249.971481,423.229584 249.576599,433.109436  C249.524002,445.384674 246.119568,456.481903 239.729736,466.497803  C230.767242,480.546234 218.521866,490.638702 202.131851,494.988770  C197.158432,496.308807 192.050446,497.121887 186.559723,498.094086  C174.489670,497.884888 163.535385,495.001892 152.948151,489.636932  C151.370972,488.560333 149.740189,488.041504 148.577408,487.000122  C142.689850,481.726929 136.923843,476.318024 131.060974,470.596191  C125.495720,461.889709 121.662239,452.855469 119.903305,442.578064  C119.648865,439.090881 119.160385,436.031158 119.038681,432.956848  C118.863640,428.535522 116.572548,425.893677 112.442947,425.072113  C107.687355,424.125977 102.848862,423.596558 97.869720,422.564392  C88.821381,419.604797 81.516617,414.482910 74.959641,407.661072  C67.067307,399.816345 63.358803,390.211151 60.904938,379.572662  C60.650650,376.747040 59.865234,374.304077 60.092827,371.959442  C60.607506,366.657318 61.346413,361.342377 62.502598,356.145782  C63.979992,349.505463 62.427864,345.890350 55.905640,342.573792  C52.349129,339.184509 48.971210,336.055450 45.492794,333.042389  C42.470875,330.424744 36.528683,330.005096 34.115517,332.510254  C31.306349,335.426453 30.668396,339.507416 33.304626,342.347656  C37.364277,346.721497 42.355282,350.230896 46.970287,354.524872  C44.433910,366.385132 44.206173,377.766327 47.935410,389.437317  C50.638298,400.765808 56.237717,410.038300 64.086914,418.419983  C71.042633,426.015991 79.079300,431.479523 88.737152,435.117188  C93.867599,436.869690 98.773331,438.342163 103.760254,439.838989  C104.760071,444.059143 105.824547,448.552246 106.937271,453.446625  C109.387108,463.549255 112.907692,472.698059 119.978195,480.458344  C125.917145,489.734558 133.963440,496.325500 143.328903,501.986694  C151.156799,505.095093 158.668228,508.019226 166.134781,511.053741  C166.894669,511.362579 167.384735,512.335327 168.000000,513.000000  C112.392349,513.000000 56.784702,513.000000 1.000000,513.000000  C1.000000,431.312531 1.000000,349.624908 1.282463,267.130371  C4.538796,268.657990 7.485351,269.894897 11.477070,268.221802  C15.858768,266.385254 15.314900,262.500397 15.883396,259.229980  C16.527380,255.525299 16.194561,251.662750 16.550009,247.893692  C17.610472,236.648926 21.973883,226.372528 26.430700,215.881149  C34.863853,199.806656 46.327404,186.820312 61.453392,177.337341  C66.171608,174.379349 67.361038,170.765167 65.889893,166.028610  C64.510689,161.588089 62.541233,157.330887 60.902832,152.557129  C58.861885,142.892578 60.611958,133.928497 62.991295,124.663437  C68.390869,111.353065 77.129440,101.373451 89.419540,94.058197  C97.397179,92.000214 105.121254,90.355934 112.530746,87.799820  C115.088440,86.917450 118.133179,84.080360 118.750633,81.589607  C120.413147,74.883224 120.887352,67.882271 121.910706,60.622677  C126.152367,49.549675 131.921906,39.882893 140.460449,32.077007  C147.589981,25.559252 155.982178,21.140266 165.398621,17.898907  C173.866104,16.920969 181.933243,15.877582 190.363525,15.020485  C198.447815,17.487503 206.168945,19.768232 214.049957,22.367722  C219.795593,26.834864 225.381317,30.983244 231.095795,35.437111  C233.480347,38.331829 235.568878,41.095078 238.035019,43.465473  C241.000168,46.315517 244.277969,47.278538 248.134705,44.516033  C252.039551,41.719090 251.972702,38.035721 250.048935,34.719681  C247.969696,31.135616 244.803558,28.182091 241.974945,24.642603  C235.907639,19.850027 229.976883,15.368379 223.882645,10.570004  C217.758438,7.843316 211.781174,5.472559 205.857391,2.974979  C205.096039,2.653975 204.612320,1.674463 204.000000,1.000000 M106.780479,384.273163  C103.798187,380.181976 100.815895,376.090820 97.976715,371.193939  C97.984322,368.541321 97.959457,365.888123 98.006790,363.236206  C98.086800,358.753845 94.940346,355.163025 90.742905,355.004059  C86.771362,354.853668 83.700951,358.051422 82.921997,362.098724  C81.650055,368.707520 83.097382,374.853729 85.208496,381.697571  C88.432014,387.408234 91.692001,393.086639 98.244347,396.752686  C102.999474,400.068817 108.172531,401.908569 114.066460,402.075928  C118.631172,402.205536 120.908630,399.764252 121.420036,395.906219  C121.917770,392.151245 120.236900,389.132690 116.150002,387.948090  C113.075600,387.057007 110.073997,385.914703 106.780479,384.273163 M162.721573,131.246887  C156.582184,130.498657 150.459000,129.410080 144.297943,129.116364  C139.851486,128.904373 136.886795,132.686493 136.999908,137.220001  C137.091492,140.890656 140.417679,143.909851 144.478989,143.996857  C146.970016,144.050232 149.461380,144.087357 152.347198,144.813095  C159.819672,144.724167 165.031006,149.708115 171.219131,153.733047  C176.615219,160.226044 180.874863,167.226761 181.021576,176.927246  C181.069809,186.285065 181.118042,195.642899 181.020538,205.792984  C177.525070,223.808273 163.698502,233.683517 147.114761,234.938507  C143.084518,235.243484 140.446426,236.815781 140.066971,240.868469  C139.683029,244.968979 140.866852,248.521805 145.655289,249.173981  C147.780701,249.463455 149.997391,249.032898 152.173538,249.008194  C163.384964,248.881042 172.649796,243.886444 180.650742,236.704880  C193.323883,225.329666 197.515579,210.634705 195.976624,193.072571  C195.984406,190.917343 196.088760,188.757339 195.982147,186.607788  C195.641403,179.736069 195.222443,172.868210 194.977234,165.243423  C191.901703,156.850662 188.569122,148.617828 180.829041,142.325668  C174.927826,138.868210 169.026627,135.410736 162.721573,131.246887 M147.183548,453.689392  C151.257706,460.708466 156.055130,466.988953 164.250916,470.762054  C171.124008,474.917694 178.617874,476.302155 186.568619,476.050781  C190.256546,475.934174 192.531052,474.426819 192.959274,470.777100  C193.424683,466.810913 193.031525,463.078827 188.135117,462.013641  C183.114960,460.921570 178.074203,459.924072 172.764420,458.252380  C166.568268,455.018951 162.047272,450.148193 158.701859,443.224365  C157.796021,438.675781 157.028412,434.093964 155.943970,429.588348  C154.935974,425.400513 151.567688,424.139648 147.981155,425.174042  C145.740967,425.820160 142.514557,427.952087 142.268143,429.762634  C141.159714,437.907074 142.417282,445.868561 147.183548,453.689392 M165.973801,361.158997  C165.648346,358.259857 165.263153,355.365875 165.011520,352.460327  C164.638519,348.153290 161.476379,344.979248 157.462891,345.002045  C153.448456,345.024841 149.788361,348.247101 150.122910,352.527740  C150.607681,358.730652 151.915833,364.869232 152.984146,371.811371  C156.953445,379.225830 160.922760,386.640320 165.180573,394.663422  C171.781616,401.513550 178.680695,407.950958 188.304581,411.755035  C196.658340,415.180023 205.290848,417.211426 214.377777,417.004486  C218.477631,416.911102 221.847244,414.000946 222.000778,410.379883  C222.192444,405.859070 219.257217,402.573090 214.863937,401.970551  C208.939392,401.158051 203.046890,400.112152 196.529190,398.954163  C188.520859,395.535980 182.052261,390.024414 175.766602,383.249908  C172.455627,376.165619 169.144638,369.081329 165.973801,361.158997 M205.995956,67.798431  C206.989883,69.956169 208.278244,72.031738 208.908691,74.290916  C209.853516,77.676697 210.095749,81.261322 211.075684,84.633850  C212.343750,88.998009 216.087830,89.765411 219.741333,88.824722  C221.719696,88.315346 224.581268,86.185257 224.754288,84.544762  C225.784500,74.776230 224.130615,65.532173 217.004318,57.263435  C211.744034,50.003952 205.017624,44.884956 195.688599,42.245167  C177.973007,38.629520 162.696823,42.242352 151.261581,57.237568  C145.754532,64.459076 143.016739,72.678757 143.074005,81.691704  C143.106049,86.733086 145.960052,89.092590 150.817200,88.997459  C155.576111,88.904243 157.787338,86.894547 157.983215,82.223923  C158.609131,67.299469 169.626633,55.904232 185.824585,55.980988  C187.270325,56.188553 188.725082,56.347240 190.160263,56.612026  C196.883957,57.852524 201.369904,62.483414 205.995956,67.798431 M126.677330,315.166473  C136.257919,320.148438 146.561020,320.435699 157.928299,319.977325  C167.892578,319.984802 177.856903,320.009644 187.821136,319.993134  C193.640640,319.983459 195.862396,318.086823 196.022232,313.377045  C196.185822,308.556671 195.584015,305.354492 187.916107,305.064392  C181.288574,304.813629 174.640274,305.111603 167.073410,305.023895  C156.375076,304.622131 145.540649,306.256134 134.692780,302.245636  C125.332420,299.457458 119.505035,292.463989 113.792282,284.277466  C112.194931,277.908051 110.212929,271.603333 109.126724,265.147919  C108.315193,260.324951 106.606781,258.057953 101.688446,257.998413  C96.453865,257.935059 94.064995,260.117462 94.016098,265.288849  C93.913727,276.115601 96.919342,286.043060 103.183662,295.697540  C109.122917,304.063324 116.279305,310.977844 126.677330,315.166473 M39.182476,247.397903  C38.788452,251.805496 38.164356,256.207642 38.060383,260.622070  C37.938587,265.793335 41.020172,269.011322 45.522213,268.997986  C50.736839,268.982544 52.748470,266.423004 53.046551,260.468292  C53.587795,249.655975 56.192108,239.371841 62.136784,229.354675  C67.954613,219.347198 76.637459,212.246155 86.733200,205.968857  C96.031845,200.327118 106.443100,198.719818 116.994576,198.107803  C121.727310,197.833282 123.276199,194.871780 123.850159,191.361557  C124.409134,187.942978 123.045227,184.308334 119.034325,184.104675  C113.703659,183.834015 108.321602,184.575546 102.123985,184.986053  C100.682129,185.197189 99.220917,185.320389 97.801331,185.632706  C78.785851,189.816360 64.150963,200.701797 52.685112,215.960464  C45.818657,225.098312 41.256851,235.433807 39.182476,247.397903 M11.192768,291.307983  C9.795669,293.647430 6.987147,296.192566 7.291989,298.283936  C7.949331,302.793671 9.738693,307.337097 12.014637,311.324646  C13.082052,313.194794 16.428322,314.862732 18.597721,314.700104  C20.819450,314.533539 23.576757,312.462769 24.844175,310.439178  C27.767199,305.772217 23.437090,301.964539 22.250443,297.806183  C20.832113,292.835938 17.615524,289.941010 11.192768,291.307983 z"></path><path fill="#000000" opacity="1.000000" stroke="none" d="M513.000000,321.000000  C513.000000,384.906555 513.000000,448.813110 513.000000,513.000000  C477.312927,513.000000 441.625122,513.000000 405.138184,512.741882  C405.231049,511.824738 406.061127,511.053223 407.024261,510.523499  C422.690979,501.907227 426.140472,478.912903 413.975006,466.638428  C404.284760,457.231079 393.426971,454.839752 380.970734,459.631958  C375.231812,452.171234 369.631134,445.030853 363.903931,437.574524  C361.728790,434.561920 359.809570,431.753448 357.600342,429.195465  C354.472229,425.573334 351.130127,422.135956 347.546204,418.340027  C345.828064,417.706512 344.443909,417.050018 343.058136,417.046509  C331.707123,417.017792 320.355774,417.110809 308.540710,417.093231  C295.052063,417.068817 282.027252,417.117981 268.562134,417.093781  C266.865753,417.020416 265.609619,417.020416 263.999786,417.020416  C263.999786,412.641449 264.021454,408.725586 263.993713,404.810028  C263.965820,400.873383 263.888794,396.937073 263.905853,392.537476  C263.978424,386.810822 263.978424,381.547333 263.978424,375.833618  C270.067871,375.833618 275.534302,375.833618 281.464539,375.905090  C292.619843,375.928650 303.311310,375.880737 314.466492,375.903931  C322.406067,375.975037 329.881927,375.975037 336.681305,375.975037  C338.964844,379.664520 340.960297,382.888519 343.086304,386.419189  C344.043365,387.540924 344.906311,388.322601 345.690948,389.176270  C355.587341,399.942993 373.649597,398.739899 384.142487,389.489655  C395.616333,379.374603 396.946777,356.821716 381.964661,346.630676  C368.792938,335.010834 344.147797,339.684326 337.256439,361.167145  C333.252808,361.167145 329.127594,361.167145 324.538574,361.093933  C313.716644,361.069397 303.358429,361.118073 292.536560,361.094116  C283.048615,361.069824 274.024353,361.118195 264.628357,360.923828  C264.115479,353.120575 263.974304,345.560028 263.905334,337.536255  C263.977570,331.477844 263.977570,325.882660 263.977570,319.832642  C270.402222,319.832642 276.200745,319.832642 282.463165,319.904297  C291.951202,319.928467 300.975342,319.880981 310.463379,319.904907  C319.285583,319.928680 327.643799,319.881073 336.465759,319.904907  C346.287384,319.928650 355.645355,319.880920 365.466156,319.904602  C371.172882,319.976013 376.416718,319.976013 380.326965,319.976013  C383.597687,324.823456 386.299957,328.828430 389.317749,332.980743  C399.262390,343.961334 419.401917,343.548950 430.124390,331.398712  C439.591797,320.670654 439.792694,302.907471 427.908936,291.573547  C422.144531,286.338135 415.161926,283.662750 408.148743,284.264862  C395.863892,285.319580 386.618866,290.208923 381.390900,304.868073  C379.622589,304.965912 377.812775,305.066010 375.539001,305.093323  C365.717590,305.069214 356.360107,305.117889 346.538635,305.093994  C337.716553,305.069763 329.358368,305.118164 320.536499,305.094177  C311.048462,305.069824 302.024139,305.117920 292.536072,305.093842  C282.766357,305.021698 273.460388,305.021698 264.193878,305.021698  C264.038269,303.285767 263.935852,302.143127 263.905396,300.536682  C263.977356,288.146027 263.977356,276.219208 263.977356,263.833710  C274.737579,263.833710 284.868866,263.833710 295.454254,263.905090  C299.062622,263.976440 302.216858,263.976440 305.371124,263.976440  C305.045898,264.329620 304.720673,264.682800 304.395447,265.035980  C308.264221,269.635101 312.133026,274.234222 316.330933,278.991638  C327.728210,287.379303 345.304199,285.103119 354.309082,274.374115  C362.512817,264.599731 363.285522,248.379257 354.980164,238.649628  C347.855225,229.776001 338.722168,226.874268 327.618225,228.102295  C317.494110,230.414673 310.049744,235.834473 306.511353,245.335403  C305.276031,248.652451 303.672150,249.052551 300.800262,249.040115  C290.200256,248.994156 279.599548,249.111450 268.559021,249.095413  C266.862030,249.023483 265.605042,249.023483 263.833191,249.023483  C263.833191,239.028595 263.833191,229.513641 263.904755,219.540344  C263.976318,215.479034 263.976318,211.876083 263.976318,207.833679  C269.064941,207.833679 273.532806,207.833679 278.464386,207.905579  C290.952362,207.929581 302.976654,207.881714 315.464661,207.905396  C326.952728,207.929169 337.977081,207.881393 349.465088,207.905182  C353.757111,207.984497 357.604248,208.237793 361.409668,207.946274  C368.231262,207.423721 374.554993,207.930130 379.087830,214.419388  C386.126984,221.517639 393.036591,228.310760 400.076660,235.409836  C407.432831,242.824677 414.658539,249.933548 422.021423,257.351318  C428.735626,264.122009 435.312714,270.583801 442.025635,277.354492  C448.404572,283.791229 454.647705,289.919098 460.815369,296.401611  C453.339813,308.638794 457.453033,323.314178 466.034393,331.368530  C472.355469,336.674896 479.518036,339.618683 487.329102,338.830048  C497.760742,337.776917 505.909729,332.515747 510.736023,322.784973  C511.121857,322.007050 512.228394,321.586578 513.000000,321.000000 M484.709167,379.267151  C484.128937,378.986725 483.434906,378.828094 482.985016,378.408051  C471.212036,367.415894 454.643555,369.392487 444.482849,379.280823  C432.920288,390.533539 433.125061,409.787720 446.236969,421.785400  C454.085022,426.499786 462.200592,429.602448 471.621674,427.013092  C486.030792,423.052887 492.840027,411.763275 492.834991,398.581604  C492.832306,391.611969 490.217804,385.031311 484.709167,379.267151 z"></path><path fill="#000000" opacity="1.000000" stroke="none" d="M513.000000,154.000000  C513.000000,202.354233 513.000000,250.708450 512.738525,299.862976  C508.661652,296.038177 504.846222,291.413086 500.866028,286.470612  C490.859985,281.056305 480.976959,280.569977 470.914551,285.578308  C464.541382,279.145691 458.295074,273.019562 451.920959,266.586548  C445.210663,259.815796 438.628143,253.351929 431.917419,246.581787  C424.539856,239.144516 417.290527,232.013504 409.912689,224.577118  C402.892456,217.498901 396.000671,210.726059 388.973633,203.644028  C386.606201,201.101944 384.570740,198.610565 382.081329,196.715576  C379.982330,195.117783 377.443115,193.451599 374.944427,193.165924  C370.356934,192.641464 365.655762,193.111191 360.538086,193.094482  C349.049652,193.070938 338.025085,193.119354 326.536743,193.095871  C314.048706,193.071472 302.024445,193.118973 289.536377,193.094879  C280.809143,193.023300 272.545715,193.023300 263.833374,193.023300  C263.833374,188.602661 263.833374,184.801651 263.904663,180.536774  C263.975952,170.478348 263.975952,160.883789 263.975952,150.834167  C273.735809,150.834167 282.866730,150.834167 292.461670,150.906250  C306.283081,150.930115 319.640503,150.881882 333.461823,150.905624  C347.949585,150.929184 361.973480,150.880753 376.461426,150.904114  C388.949615,150.928543 400.973755,150.881195 413.461975,150.905228  C424.285339,150.929077 434.644592,150.881561 445.462219,150.905273  C449.839081,150.976517 453.757568,150.976517 456.248291,150.976517  C460.300049,156.182770 463.668793,160.511414 467.354248,164.999817  C479.118408,175.490845 502.895050,172.985352 510.451294,156.167664  C510.864136,155.248871 512.130798,154.713715 513.000000,154.000000 M489.778229,196.306458  C486.983795,191.354477 483.718323,186.886505 477.689667,184.236435  C471.116577,181.438248 464.458221,179.941559 457.292053,181.999786  C443.492737,185.963181 436.431061,196.090454 436.164398,209.630936  C436.012390,217.350922 438.799835,224.525024 445.637512,230.132523  C453.345764,237.570312 462.933807,239.534409 472.547729,236.541397  C489.295868,231.327347 497.811737,213.642014 489.778229,196.306458 z"></path><path fill="#000000" opacity="1.000000" stroke="none" d="M1.000001,240.000000  C1.000000,160.419876 1.000000,80.839760 1.000000,1.000000  C55.353951,1.000000 109.708321,1.000000 164.867554,1.300972  C165.335464,1.969305 165.054367,2.575976 164.653503,2.669553  C148.134521,6.525707 134.647141,15.181822 123.502617,27.908859  C114.515282,38.172394 108.870628,49.925915 105.951134,63.164047  C104.808258,68.346306 105.604813,73.320419 97.214745,75.478676  C71.850723,82.003281 54.701790,98.257416 47.971035,124.256721  C46.800793,128.777084 46.086102,133.415390 45.090172,138.451965  C46.329445,147.304138 47.639549,155.703568 48.970398,164.488922  C48.411171,166.023132 48.099575,167.472244 47.206226,168.269318  C42.569744,172.406128 37.182621,175.860870 33.189880,180.523376  C26.876278,187.896011 20.845892,195.666122 15.830352,203.954666  C10.072242,213.470352 5.498483,223.714523 3.536350,235.167297  C2.459731,236.917618 1.729866,238.458817 1.000001,240.000000 z"></path><path fill="#000000" opacity="1.000000" stroke="none" d="M381.000000,513.000000  C320.979095,513.000000 260.958221,513.000000 200.134064,512.685791  C199.819656,511.942719 200.238312,511.329041 200.807877,511.112732  C208.903687,508.038025 217.599594,506.030212 225.018311,501.785736  C244.254547,490.780090 256.824707,474.171875 261.922180,452.425568  C263.466461,445.837463 263.918030,438.993195 264.931335,431.833618  C275.778320,431.833618 286.890839,431.833618 298.467010,431.904602  C310.953827,431.928528 322.977020,431.881439 335.397278,431.905670  C339.906616,431.300140 341.862793,434.177551 343.974487,436.876221  C346.909210,440.626740 349.912170,444.323853 353.027466,448.359253  C358.739838,455.462860 364.310669,462.251007 369.819275,469.387817  C362.125153,478.863556 363.374146,499.287170 374.085754,506.421021  C375.694672,507.877716 377.231873,508.947968 378.618042,510.187164  C379.525177,510.998230 380.213623,512.053894 381.000000,513.000000 z"></path><path fill="#4ABCE2" opacity="1.000000" stroke="none" d="M298.003357,431.833618  C286.890839,431.833618 275.778320,431.833618 264.931335,431.833618  C263.918030,438.993195 263.466461,445.837463 261.922180,452.425568  C256.824707,474.171875 244.254547,490.780090 225.018311,501.785736  C217.599594,506.030212 208.903687,508.038025 200.807877,511.112732  C200.238312,511.329041 199.819656,511.942719 199.665405,512.685791  C191.979095,513.000000 183.958191,513.000000 175.539627,512.664307  C176.461426,510.686188 177.749420,509.017151 179.107071,507.406860  C181.718567,504.309387 184.369522,501.245178 187.004089,498.167175  C192.050446,497.121887 197.158432,496.308807 202.131851,494.988770  C218.521866,490.638702 230.767242,480.546234 239.729736,466.497803  C246.119568,456.481903 249.524002,445.384674 249.606049,433.444397  C251.040482,433.995270 252.750305,435.072662 253.013718,434.792114  C258.442169,429.009949 263.705963,423.073212 269.002411,417.167145  C282.027252,417.117981 295.052063,417.068817 308.519531,417.443848  C307.692993,419.693970 306.517395,421.594604 305.133484,423.329041  C302.826996,426.219940 300.387085,429.004364 298.003357,431.833618 z"></path><path fill="#F86FAA" opacity="1.000000" stroke="none" d="M45.161011,137.999222  C46.086102,133.415390 46.800793,128.777084 47.971035,124.256721  C54.701790,98.257416 71.850723,82.003281 97.214745,75.478676  C105.604813,73.320419 104.808258,68.346306 105.951134,63.164047  C108.870628,49.925915 114.515282,38.172394 123.502617,27.908859  C134.647141,15.181822 148.134521,6.525707 164.653503,2.669553  C165.054367,2.575976 165.335464,1.969305 165.336212,1.300972  C169.024551,1.000000 173.049088,1.000000 177.471573,1.336981  C176.055237,3.807107 174.177185,5.889853 172.441788,8.085349  C169.906891,11.292249 167.474411,14.580105 164.998276,17.833458  C155.982178,21.140266 147.589981,25.559252 140.460449,32.077007  C131.921906,39.882893 126.152367,49.549675 121.560104,60.643276  C119.862839,61.753368 118.361519,62.231785 117.360802,63.218113  C108.591087,71.861656 99.860718,80.547066 91.263344,89.361160  C90.110519,90.543045 89.762970,92.510414 89.042519,94.114044  C77.129440,101.373451 68.390869,111.353065 62.655701,124.732590  C58.409134,128.287552 54.724823,131.525925 50.875134,134.554047  C49.140408,135.918549 47.075890,136.863770 45.161011,137.999222 z"></path><path fill="#26CCED" opacity="1.000000" stroke="none" d="M501.030823,286.787964  C504.846222,291.413086 508.661652,296.038177 512.738525,300.331665  C513.000000,306.687653 513.000000,313.375275 513.000000,320.531464  C512.228394,321.586578 511.121857,322.007050 510.736023,322.784973  C505.909729,332.515747 497.760742,337.776917 487.329102,338.830048  C479.518036,339.618683 472.355469,336.674896 466.329834,331.200775  C470.024719,327.459991 473.570282,324.209137 477.450195,321.112427  C480.597168,321.948944 483.421692,323.240997 486.219879,323.186188  C491.971069,323.073547 496.229828,319.568207 497.661285,314.346771  C499.307739,308.340973 497.576599,302.663910 492.085449,298.506805  C495.115723,294.383911 498.073273,290.585938 501.030823,286.787964 z"></path><path fill="#0CD7F5" opacity="1.000000" stroke="none" d="M381.468628,513.000000  C380.213623,512.053894 379.525177,510.998230 378.618042,510.187164  C377.231873,508.947968 375.694672,507.877716 374.254639,506.126434  C377.562531,502.329926 380.837372,499.142731 384.489105,495.980560  C391.079712,500.160400 398.498444,499.884705 402.469269,494.920685  C407.244934,488.950592 407.509247,483.674805 403.125305,476.835632  C406.897430,473.343658 410.504272,470.149445 414.111145,466.955261  C426.140472,478.912903 422.690979,501.907227 407.024261,510.523499  C406.061127,511.053223 405.231049,511.824738 404.669525,512.741882  C397.312408,513.000000 389.624847,513.000000 381.468628,513.000000 z"></path><path fill="#5DB3DB" opacity="1.000000" stroke="none" d="M513.000000,153.531464  C512.130798,154.713715 510.864136,155.248871 510.451294,156.167664  C502.895050,172.985352 479.118408,175.490845 467.365173,164.648956  C470.053284,160.386932 473.047089,156.635544 476.368835,153.037659  C481.984680,157.360229 487.259644,157.581177 492.457886,154.049271  C497.880981,150.364594 500.896423,143.112778 495.178314,133.873703  C498.658844,130.113556 501.842621,126.518921 505.026398,122.924301  C505.309967,123.088257 505.593536,123.252205 506.052917,123.864914  C506.387878,124.581451 506.588837,124.812935 506.831635,125.008118  C508.708588,127.893051 510.585541,130.778000 512.731201,133.331482  C513.000000,139.687637 513.000000,146.375290 513.000000,153.531464 z"></path><path fill="#DD7BB3" opacity="1.000000" stroke="none" d="M1.000001,240.468658  C1.729866,238.458817 2.459731,236.917618 3.881863,235.116043  C9.544035,230.242554 14.459713,225.568893 19.510223,221.045776  C21.561592,219.208633 23.906315,217.699020 26.117546,216.040359  C21.973883,226.372528 17.610472,236.648926 16.550009,247.893692  C16.194561,251.662750 16.527380,255.525299 15.883396,259.229980  C15.314900,262.500397 15.858768,266.385254 11.477070,268.221802  C7.485351,269.894897 4.538796,268.657990 1.282463,266.661682  C1.000000,258.312439 1.000000,249.624863 1.000001,240.468658 z"></path><path fill="#57B6DD" opacity="1.000000" stroke="none" d="M186.559723,498.094055  C184.369522,501.245178 181.718567,504.309387 179.107071,507.406860  C177.749420,509.017151 176.461426,510.686188 175.070984,512.664307  C172.958328,513.000000 170.916672,513.000000 168.437500,513.000000  C167.384735,512.335327 166.894669,511.362579 166.134781,511.053741  C158.668228,508.019226 151.156799,505.095093 143.397186,501.650940  C146.460968,497.426056 149.785660,493.689911 153.110336,489.953735  C163.535385,495.001892 174.489670,497.884888 186.559723,498.094055 z"></path><path fill="#E777B0" opacity="1.000000" stroke="none" d="M213.890060,22.048958  C206.168945,19.768232 198.447815,17.487503 190.437256,14.695333  C191.751801,12.303593 193.552902,10.553918 194.908142,8.508772  C196.476822,6.141512 197.653275,3.514337 199.000000,1.000003  C200.388885,1.000000 201.777786,1.000000 203.583344,1.000000  C204.612320,1.674463 205.096039,2.653975 205.857391,2.974979  C211.781174,5.472559 217.758438,7.843316 223.813126,10.914148  C220.568069,15.066332 217.229065,18.557644 213.890060,22.048958 z"></path><path fill="#F371AC" opacity="1.000000" stroke="none" d="M198.531464,1.000003  C197.653275,3.514337 196.476822,6.141512 194.908142,8.508772  C193.552902,10.553918 191.751801,12.303593 190.074097,14.509043  C181.933243,15.877582 173.866104,16.920969 165.398621,17.898907  C167.474411,14.580105 169.906891,11.292249 172.441788,8.085349  C174.177185,5.889853 176.055237,3.807107 177.934753,1.336981  C184.687637,1.000000 191.375290,1.000000 198.531464,1.000003 z"></path><path fill="#E777B0" opacity="1.000000" stroke="none" d="M26.430702,215.881149  C23.906315,217.699020 21.561592,219.208633 19.510223,221.045776  C14.459713,225.568893 9.544035,230.242554 4.228617,234.906921  C5.498483,223.714523 10.072242,213.470352 15.830352,203.954666  C20.845892,195.666122 26.876278,187.896011 33.189880,180.523376  C37.182621,175.860870 42.569744,172.406128 47.206226,168.269318  C48.099575,167.472244 48.411171,166.023132 49.139240,164.194412  C53.135399,160.007019 56.983459,156.500015 60.831516,152.993027  C62.541233,157.330887 64.510689,161.588089 65.889893,166.028610  C67.361038,170.765167 66.171608,174.379349 61.453392,177.337341  C46.327404,186.820312 34.863853,199.806656 26.430702,215.881149 z"></path><path fill="#80A4D0" opacity="1.000000" stroke="none" d="M268.999084,249.167343  C279.599548,249.111450 290.200256,248.994156 300.800262,249.040115  C303.672150,249.052551 305.276031,248.652451 306.511353,245.335403  C310.049744,235.834473 317.494110,230.414673 327.544739,228.427338  C326.722534,230.223877 325.707611,231.744949 324.443756,233.019135  C315.797729,241.735794 307.070526,250.372086 298.448090,259.111847  C297.094269,260.484039 296.139465,262.249878 295.000153,263.833710  C284.868866,263.833710 274.737579,263.833710 263.977356,263.833710  C263.977356,276.219208 263.977356,288.146027 263.580322,300.610046  C261.795074,302.258453 260.384918,303.343475 259.023285,304.486328  C256.057953,306.975220 253.117340,309.493530 250.166595,311.999817  C250.118835,297.642090 250.071060,283.284363 250.419891,268.389343  C256.877380,261.623810 262.938232,255.395569 268.999084,249.167343 z"></path><path fill="#9899C9" opacity="1.000000" stroke="none" d="M379.992798,103.836296  C378.280243,104.224220 376.571228,104.928307 374.854584,104.947395  C365.545074,105.050957 356.233704,104.985252 346.533203,104.580414  C347.366486,102.683128 348.563477,101.161087 349.817963,99.687996  C352.532227,96.500648 355.275970,93.338379 358.007660,90.165848  C369.426239,92.315811 377.236694,86.887405 384.182678,78.519409  C388.691833,73.087097 394.271332,68.543221 399.249573,63.719219  C398.319061,61.677048 397.656311,60.222515 397.278961,58.338123  C399.425629,56.389465 401.221985,54.780884 403.165527,53.375900  C405.317902,51.819946 407.604828,50.450157 409.905670,49.376099  C410.997284,55.128460 414.253632,58.735962 418.924805,61.492180  C417.603760,63.341854 416.472626,64.981789 415.090698,66.372559  C404.564667,76.965775 393.942413,87.463928 383.482361,98.121460  C381.959320,99.673233 381.138519,101.914223 379.992798,103.836296 z"></path><path fill="#A793C4" opacity="1.000000" stroke="none" d="M291.997681,150.834167  C282.866730,150.834167 273.735809,150.834167 263.975952,150.834167  C263.975952,160.883789 263.975952,170.478348 263.579651,180.610321  C261.327393,182.727142 259.542969,184.401825 257.597382,185.861786  C255.190308,187.668030 252.649460,189.296021 250.166412,191.001022  C250.118057,176.976059 250.069702,162.951111 250.419113,148.389191  C255.248489,143.886475 259.680115,139.920700 264.111725,135.954926  C276.764862,135.977890 289.418030,136.000854 302.515015,136.445679  C301.690247,138.693863 300.515930,140.595367 299.131927,142.329575  C296.824493,145.220810 294.382812,148.004944 291.997681,150.834167 z"></path><path fill="#69AED8" opacity="1.000000" stroke="none" d="M476.040894,152.884155  C473.047089,156.635544 470.053284,160.386932 467.048523,164.489197  C463.668793,160.511414 460.300049,156.182770 456.248291,150.976517  C453.757568,150.976517 449.839081,150.976517 445.534973,150.580170  C446.371735,148.684219 447.568451,147.162796 448.821777,145.689545  C451.533264,142.502289 454.273743,139.339722 457.002380,136.167068  C460.294891,130.059189 463.291473,124.017609 469.427704,119.735458  C478.929077,113.105011 494.939636,113.625992 502.990356,121.414001  C503.435883,121.845024 504.133270,122.015671 504.869934,122.615898  C501.842621,126.518921 498.658844,130.113556 494.854767,133.727692  C490.400513,130.774124 486.358215,128.682205 481.388489,130.902939  C471.168365,135.469849 469.143219,143.825256 476.040894,152.884155 z"></path><path fill="#AE90C2" opacity="1.000000" stroke="none" d="M195.833481,194.000336  C197.515579,210.634705 193.323883,225.329666 180.650742,236.704880  C172.649796,243.886444 163.384964,248.881042 152.173538,249.008194  C149.997391,249.032898 147.780701,249.463455 145.655289,249.173981  C140.866852,248.521805 139.683029,244.968979 140.066971,240.868469  C140.446426,236.815781 143.084518,235.243484 147.114761,234.938507  C163.698502,233.683517 177.525070,223.808273 181.444016,205.376526  C183.693680,203.691452 185.594910,202.516891 187.329117,201.133026  C190.220215,198.826004 193.004333,196.384964 195.833481,194.000336 z"></path><path fill="#D67EB5" opacity="1.000000" stroke="none" d="M85.998367,205.832962  C76.637459,212.246155 67.954613,219.347198 61.633560,229.697403  C57.628605,232.651825 54.057175,235.176132 50.644066,237.898911  C46.979088,240.822617 43.462849,243.932755 39.881702,246.961548  C41.256851,235.433807 45.818657,225.098312 52.685112,215.960464  C64.150963,200.701797 78.785851,189.816360 97.801331,185.632706  C99.220917,185.320389 100.682129,185.197189 102.490829,185.279663  C99.453636,189.333679 95.944839,193.005859 92.680405,196.883759  C90.286957,199.727005 88.214111,202.840134 85.998367,205.832962 z"></path><path fill="#E777B0" opacity="1.000000" stroke="none" d="M184.997910,55.833939  C169.626633,55.904232 158.609131,67.299469 157.983215,82.223923  C157.787338,86.894547 155.576111,88.904243 150.817200,88.997459  C145.960052,89.092590 143.106049,86.733086 143.074005,81.691704  C143.016739,72.678757 145.754532,64.459076 151.261581,57.237568  C162.696823,42.242352 177.973007,38.629520 195.601608,42.769867  C192.467743,46.275875 189.337296,49.179005 186.427856,52.288895  C185.615860,53.156841 185.456604,54.635460 184.997910,55.833939 z"></path><path fill="#B68CBF" opacity="1.000000" stroke="none" d="M264.062439,135.491425  C259.680115,139.920700 255.248489,143.886475 250.491791,147.925461  C250.118103,135.307556 250.069504,122.616432 250.444336,109.441727  C258.284393,104.017624 264.874847,98.280235 268.997192,90.162270  C278.356171,90.116165 287.715118,90.070061 297.463959,90.420593  C296.630768,92.316589 295.432983,93.837471 294.179413,95.310860  C291.467682,98.498032 288.727386,101.660881 285.998779,104.833679  C278.871094,104.833687 271.743408,104.833687 264.013184,104.833687  C264.013184,115.192543 264.013184,125.110229 264.062439,135.491425 z"></path><path fill="#72AAD5" opacity="1.000000" stroke="none" d="M250.095184,312.463684  C253.117340,309.493530 256.057953,306.975220 259.023285,304.486328  C260.384918,303.343475 261.795074,302.258453 263.508331,301.073853  C263.935852,302.143127 264.038269,303.285767 264.193878,305.021698  C273.460388,305.021698 282.766357,305.021698 292.461029,305.423096  C291.777222,307.492462 290.834625,309.263947 289.604828,310.806488  C287.153076,313.881744 284.543579,316.831238 281.999237,319.832642  C276.200745,319.832642 270.402222,319.832642 263.977570,319.832642  C263.977570,325.882660 263.977570,331.477844 263.580231,337.609924  C261.800995,339.251953 260.446289,340.393402 259.031555,341.454834  C256.093567,343.659027 253.123688,345.820740 250.166901,347.999939  C250.119186,336.309143 250.071472,324.618347 250.095184,312.463684 z"></path><path fill="#8F9DCB" opacity="1.000000" stroke="none" d="M380.327637,103.818573  C381.138519,101.914223 381.959320,99.673233 383.482361,98.121460  C393.942413,87.463928 404.564667,76.965775 415.090698,66.372559  C416.472626,64.981789 417.603760,63.341854 419.311859,61.421104  C421.270599,61.120544 422.833984,61.543388 424.255890,61.258984  C433.786224,59.352764 436.329742,55.506222 436.248688,44.013664  C440.448669,40.977779 444.280121,37.966042 448.111572,34.954311  C453.763641,44.808601 452.690979,54.613987 446.920074,63.772346  C442.060638,71.484230 434.881165,76.197739 425.305420,75.961128  C421.725647,75.872673 417.999329,75.871758 414.626678,74.867554  C411.173859,73.839478 409.322113,75.030907 407.100342,77.306587  C398.385193,86.233185 389.490479,94.984459 380.327637,103.818573 z"></path><path fill="#9899C9" opacity="1.000000" stroke="none" d="M250.094284,191.464615  C252.649460,189.296021 255.190308,187.668030 257.597382,185.861786  C259.542969,184.401825 261.327393,182.727142 263.508362,181.074188  C263.833374,184.801651 263.833374,188.602661 263.833374,193.023300  C272.545715,193.023300 280.809143,193.023300 289.462982,193.420013  C288.630798,195.316269 287.433685,196.837463 286.180359,198.310837  C283.469086,201.498108 280.728973,204.660889 278.000671,207.833679  C273.532806,207.833679 269.064941,207.833679 263.976318,207.833679  C263.976318,211.876083 263.976318,215.479034 263.554199,219.560867  C261.300842,221.313797 259.411560,222.513123 257.652130,223.879669  C255.107666,225.855957 252.657272,227.953354 250.166748,229.999084  C250.118561,217.308792 250.070358,204.618500 250.094284,191.464615 z"></path><path fill="#60B2DB" opacity="1.000000" stroke="none" d="M265.000061,361.166565  C274.024353,361.118195 283.048615,361.069824 292.462921,361.419128  C291.630157,363.316193 290.432648,364.837097 289.179352,366.310577  C286.468323,369.497803 283.728668,372.660736 281.000732,375.833618  C275.534302,375.833618 270.067871,375.833618 263.978424,375.833618  C263.978424,381.547333 263.978424,386.810822 263.555298,392.557526  C261.416595,394.198792 259.628601,395.264313 258.001740,396.535919  C255.335037,398.620331 252.772980,400.838684 250.166763,403.000519  C250.119049,394.642914 250.071335,386.285278 250.420151,377.390320  C253.836273,374.110046 257.046112,371.543762 259.812225,368.565399  C261.842804,366.378937 263.291870,363.652405 265.000061,361.166565 z"></path><path fill="#A096C6" opacity="1.000000" stroke="none" d="M409.833160,48.999298  C407.604828,50.450157 405.317902,51.819946 403.165527,53.375900  C401.221985,54.780884 399.425629,56.389465 397.219299,57.978020  C392.954559,47.761181 394.671387,38.211239 401.641602,29.997559  C409.093536,21.216169 418.734680,17.937445 430.155945,20.964193  C431.081757,21.209539 432.036194,21.346739 433.081055,22.226479  C432.178589,24.389711 431.247742,25.919737 430.149933,27.318733  C428.152161,29.864586 426.055237,32.332607 423.608826,34.904533  C415.572388,35.958935 410.594055,41.174763 409.833160,48.999298 z"></path><path fill="#8C9FCC" opacity="1.000000" stroke="none" d="M375.997345,150.832321  C361.973480,150.880753 347.949585,150.929184 333.535706,150.580536  C334.368652,148.684052 335.566254,147.163116 336.819733,145.689728  C339.531219,142.502502 342.271332,139.339615 344.999725,136.166779  C358.690125,136.119003 372.380493,136.071243 386.514587,136.445648  C385.689606,138.693771 384.514984,140.594833 383.131012,142.328796  C380.823700,145.219620 378.382294,148.003433 375.997345,150.832321 z"></path><path fill="#9B98C8" opacity="1.000000" stroke="none" d="M344.535889,136.095306  C342.271332,139.339615 339.531219,142.502502 336.819733,145.689728  C335.566254,147.163116 334.368652,148.684052 333.071838,150.508545  C319.640503,150.881882 306.283081,150.930115 292.461670,150.906250  C294.382812,148.004944 296.824493,145.220810 299.131927,142.329575  C300.515930,140.595367 301.690247,138.693863 302.978760,136.516998  C316.689819,136.118912 330.380920,136.071365 344.535889,136.095306 z"></path><path fill="#A793C4" opacity="1.000000" stroke="none" d="M56.040588,342.884369  C62.427864,345.890350 63.979992,349.505463 62.502598,356.145782  C61.346413,361.342377 60.607506,366.657318 60.092827,371.959442  C59.865234,374.304077 60.650650,376.747040 60.554382,379.593018  C58.431999,381.184021 56.684940,382.264893 55.041824,383.485626  C52.617901,385.286407 50.267956,387.186768 47.886505,389.044708  C44.206173,377.766327 44.433910,366.385132 47.138939,354.229980  C50.205841,349.972961 53.123211,346.428650 56.040588,342.884369 z"></path><path fill="#80A4D0" opacity="1.000000" stroke="none" d="M376.461426,150.904114  C378.382294,148.003433 380.823700,145.219620 383.131012,142.328796  C384.514984,140.594833 385.689606,138.693771 386.978271,136.517303  C399.355621,136.118881 411.712952,136.070953 424.459351,136.423096  C424.318939,137.640060 423.878845,138.535065 423.245056,139.260895  C419.855988,143.141846 416.418579,146.980560 412.997864,150.833862  C400.973755,150.881195 388.949615,150.928543 376.461426,150.904114 z"></path><path fill="#8F9DCB" opacity="1.000000" stroke="none" d="M250.094818,230.462921  C252.657272,227.953354 255.107666,225.855957 257.652130,223.879669  C259.411560,222.513123 261.300842,221.313797 263.482666,220.019196  C263.833191,229.513641 263.833191,239.028595 263.833191,249.023483  C265.605042,249.023483 266.862030,249.023483 268.559021,249.095413  C262.938232,255.395569 256.877380,261.623810 250.491470,267.925446  C250.118591,255.641510 250.070755,243.284149 250.094818,230.462921 z"></path><path fill="#A793C4" opacity="1.000000" stroke="none" d="M357.542908,90.094757  C355.275970,93.338379 352.532227,96.500648 349.817963,99.687996  C348.563477,101.161087 347.366486,102.683128 346.069153,104.508133  C334.971710,104.881264 323.948578,104.929245 312.535522,104.579742  C314.091278,101.959885 315.857117,99.539108 318.031006,97.568527  C320.410950,95.411140 321.387787,93.182014 319.995117,90.167648  C332.356140,90.119652 344.717163,90.071663 357.542908,90.094757 z"></path><path fill="#80A4D0" opacity="1.000000" stroke="none" d="M106.889023,453.045319  C105.824547,448.552246 104.760071,444.059143 103.760254,439.838989  C98.773331,438.342163 93.867599,436.869690 88.931107,434.770172  C91.949013,430.390808 94.997696,426.638489 98.046371,422.886169  C102.848862,423.596558 107.687355,424.125977 112.442947,425.072113  C116.572548,425.893677 118.863640,428.535522 119.038681,432.956848  C119.160385,436.031158 119.648865,439.090881 119.552765,442.598511  C117.659416,443.955566 116.047691,444.708160 114.743149,445.820892  C112.038681,448.127686 109.497398,450.625854 106.889023,453.045319 z"></path><path fill="#57B6DD" opacity="1.000000" stroke="none" d="M250.095306,403.464355  C252.772980,400.838684 255.335037,398.620331 258.001740,396.535919  C259.628601,395.264313 261.416595,394.198792 263.482727,393.020660  C263.888794,396.937073 263.965820,400.873383 263.993713,404.810028  C264.021454,408.725586 263.999786,412.641449 263.999786,417.020416  C265.609619,417.020416 266.865753,417.020416 268.562134,417.093781  C263.705963,423.073212 258.442169,429.009949 253.013718,434.792114  C252.750305,435.072662 251.040482,433.995270 249.974762,433.215271  C249.971481,423.229584 249.997665,413.578857 250.095306,403.464355 z"></path><path fill="#B68CBF" opacity="1.000000" stroke="none" d="M102.909302,295.064758  C96.919342,286.043060 93.913727,276.115601 94.016098,265.288849  C94.064995,260.117462 96.453865,257.935059 101.688446,257.998413  C106.606781,258.057953 108.315193,260.324951 109.126724,265.147919  C110.212929,271.603333 112.194931,277.908051 113.654007,284.786774  C109.980263,288.552307 106.444786,291.808533 102.909302,295.064758 z"></path><path fill="#9B98C8" opacity="1.000000" stroke="none" d="M135.041031,302.882294  C145.540649,306.256134 156.375076,304.622131 167.462128,305.424744  C166.778336,307.493469 165.835648,309.264832 164.605911,310.807343  C162.154327,313.882477 159.545151,316.831940 157.001038,319.833313  C146.561020,320.435699 136.257919,320.148438 126.412537,314.674957  C129.112167,310.416382 132.076599,306.649353 135.041031,302.882294 z"></path><path fill="#9B98C8" opacity="1.000000" stroke="none" d="M47.935410,389.437317  C50.267956,387.186768 52.617901,385.286407 55.041824,383.485626  C56.684940,382.264893 58.431999,381.184021 60.483128,380.020264  C63.358803,390.211151 67.067307,399.816345 74.606598,407.723969  C70.903473,411.441925 67.430168,414.777832 63.956856,418.113739  C56.237717,410.038300 50.638298,400.765808 47.935410,389.437317 z"></path><path fill="#8F9DCB" opacity="1.000000" stroke="none" d="M157.464661,319.905334  C159.545151,316.831940 162.154327,313.882477 164.605911,310.807343  C165.835648,309.264832 166.778336,307.493469 167.925995,305.496307  C174.640274,305.111603 181.288574,304.813629 187.916107,305.064392  C195.584015,305.354492 196.185822,308.556671 196.022232,313.377045  C195.862396,318.086823 193.640640,319.983459 187.821136,319.993134  C177.856903,320.009644 167.892578,319.984802 157.464661,319.905334 z"></path><path fill="#74A9D4" opacity="1.000000" stroke="none" d="M413.461975,150.905228  C416.418579,146.980560 419.855988,143.141846 423.245056,139.260895  C423.878845,138.535065 424.318939,137.640060 424.922913,136.495117  C435.356445,136.118988 445.715393,136.070877 456.538391,136.094910  C454.273743,139.339722 451.533264,142.502289 448.821777,145.689545  C447.568451,147.162796 446.371735,148.684219 445.076630,150.508942  C434.644592,150.881561 424.285339,150.929077 413.461975,150.905228 z"></path><path fill="#74A9D4" opacity="1.000000" stroke="none" d="M106.937263,453.446625  C109.497398,450.625854 112.038681,448.127686 114.743149,445.820892  C116.047691,444.708160 117.659416,443.955566 119.482582,443.019440  C121.662239,452.855469 125.495720,461.889709 130.716507,470.665131  C126.934532,474.098877 123.442764,477.103241 119.950989,480.107574  C112.907692,472.698059 109.387108,463.549255 106.937263,453.446625 z"></path><path fill="#69AED8" opacity="1.000000" stroke="none" d="M119.978195,480.458344  C123.442764,477.103241 126.934532,474.098877 130.770782,471.025574  C136.923843,476.318024 142.689850,481.726929 148.577408,487.000122  C149.740189,488.041504 151.370972,488.560333 152.948151,489.636932  C149.785660,493.689911 146.460968,497.426056 143.067993,501.497955  C133.963440,496.325500 125.917145,489.734558 119.978195,480.458344 z"></path><path fill="#8C9FCC" opacity="1.000000" stroke="none" d="M64.086914,418.419983  C67.430168,414.777832 70.903473,411.441925 74.729813,408.043091  C81.516617,414.482910 88.821381,419.604797 97.869720,422.564392  C94.997696,426.638489 91.949013,430.390808 88.706383,434.490112  C79.079300,431.479523 71.042633,426.015991 64.086914,418.419983 z"></path><path fill="#C187BB" opacity="1.000000" stroke="none" d="M268.565399,90.088760  C264.874847,98.280235 258.284393,104.017624 250.517273,108.977959  C250.110947,99.021179 250.104523,89.043938 249.976471,79.068260  C249.920349,74.696007 252.811523,73.402260 256.261963,73.068489  C259.974823,72.709335 263.405121,73.798950 263.905579,78.108543  C264.341125,81.859032 263.996277,85.700134 263.996277,90.015244  C265.591644,90.015244 266.862610,90.015244 268.565399,90.088760 z"></path><path fill="#CF81B7" opacity="1.000000" stroke="none" d="M39.532089,247.179718  C43.462849,243.932755 46.979088,240.822617 50.644066,237.898911  C54.057175,235.176132 57.628605,232.651825 61.482147,230.018982  C56.192108,239.371841 53.587795,249.655975 53.046551,260.468292  C52.748470,266.423004 50.736839,268.982544 45.522213,268.997986  C41.020172,269.011322 37.938587,265.793335 38.060383,260.622070  C38.164356,256.207642 38.788452,251.805496 39.532089,247.179718 z"></path><path fill="#A793C4" opacity="1.000000" stroke="none" d="M134.866913,302.563965  C132.076599,306.649353 129.112167,310.416382 126.074326,314.508545  C116.279305,310.977844 109.122917,304.063324 103.046478,295.381165  C106.444786,291.808533 109.980263,288.552307 113.813454,285.125305  C119.505035,292.463989 125.332420,299.457458 134.866913,302.563965 z"></path><path fill="#B68CBF" opacity="1.000000" stroke="none" d="M195.905060,193.536469  C193.004333,196.384964 190.220215,198.826004 187.329117,201.133026  C185.594910,202.516891 183.693680,203.691452 181.516876,204.980408  C181.118042,195.642899 181.069809,186.285065 181.444885,176.443451  C183.583771,174.801407 185.371674,173.735687 186.998566,172.463959  C189.665298,170.379349 192.227432,168.160889 194.833679,165.998871  C195.222443,172.868210 195.641403,179.736069 195.982147,186.607788  C196.088760,188.757339 195.984406,190.917343 195.905060,193.536469 z"></path><path fill="#69AED8" opacity="1.000000" stroke="none" d="M197.140625,399.166443  C203.046890,400.112152 208.939392,401.158051 214.863937,401.970551  C219.257217,402.573090 222.192444,405.859070 222.000778,410.379883  C221.847244,414.000946 218.477631,416.911102 214.377777,417.004486  C205.290848,417.211426 196.658340,415.180023 188.296234,411.135803  C191.238785,406.733185 194.189713,402.949799 197.140625,399.166443 z"></path><path fill="#CF81B7" opacity="1.000000" stroke="none" d="M86.365784,205.900909  C88.214111,202.840134 90.286957,199.727005 92.680405,196.883759  C95.944839,193.005859 99.453636,189.333679 102.909653,185.227737  C108.321602,184.575546 113.703659,183.834015 119.034325,184.104675  C123.045227,184.308334 124.409134,187.942978 123.850159,191.361557  C123.276199,194.871780 121.727310,197.833282 116.994576,198.107803  C106.443100,198.719818 96.031845,200.327118 86.365784,205.900909 z"></path><path fill="#74A9D4" opacity="1.000000" stroke="none" d="M196.834900,399.060303  C194.189713,402.949799 191.238785,406.733185 188.118866,410.811462  C178.680695,407.950958 171.781616,401.513550 165.378967,394.285522  C169.066254,390.567413 172.555161,387.227173 176.044037,383.886963  C182.052261,390.024414 188.520859,395.535980 196.834900,399.060303 z"></path><path fill="#C187BB" opacity="1.000000" stroke="none" d="M194.905457,165.621155  C192.227432,168.160889 189.665298,170.379349 186.998566,172.463959  C185.371674,173.735687 183.583771,174.801407 181.517639,175.979797  C180.874863,167.226761 176.615219,160.226044 171.253281,153.124359  C174.561188,149.328186 177.834961,146.140701 181.108734,142.953217  C188.569122,148.617828 191.901703,156.850662 194.905457,165.621155 z"></path><path fill="#CF81B7" opacity="1.000000" stroke="none" d="M217.119141,57.959618  C224.130615,65.532173 225.784500,74.776230 224.754288,84.544762  C224.581268,86.185257 221.719696,88.315346 219.741333,88.824722  C216.087830,89.765411 212.343750,88.998009 211.075684,84.633850  C210.095749,81.261322 209.853516,77.676697 208.908691,74.290916  C208.278244,72.031738 206.989883,69.956169 206.239182,67.256149  C210.027985,63.795788 213.573563,60.877701 217.119141,57.959618 z"></path><path fill="#F371AC" opacity="1.000000" stroke="none" d="M89.419540,94.058197  C89.762970,92.510414 90.110519,90.543045 91.263344,89.361160  C99.860718,80.547066 108.591087,71.861656 117.360802,63.218113  C118.361519,62.231785 119.862839,61.753368 121.482651,61.018848  C120.887352,67.882271 120.413147,74.883224 118.750633,81.589607  C118.133179,84.080360 115.088440,86.917450 112.530746,87.799820  C105.121254,90.355934 97.397179,92.000214 89.419540,94.058197 z"></path><path fill="#F371AC" opacity="1.000000" stroke="none" d="M60.902832,152.557129  C56.983459,156.500015 53.135399,160.007019 49.118492,163.808502  C47.639549,155.703568 46.329445,147.304138 45.090176,138.451965  C47.075890,136.863770 49.140408,135.918549 50.875134,134.554047  C54.724823,131.525925 58.409134,128.287552 62.496479,125.065765  C60.611958,133.928497 58.861885,142.892578 60.902832,152.557129 z"></path><path fill="#69AED8" opacity="1.000000" stroke="none" d="M264.628357,360.923828  C263.291870,363.652405 261.842804,366.378937 259.812225,368.565399  C257.046112,371.543762 253.836273,374.110046 250.491608,376.926514  C250.118988,367.642578 250.071411,358.285126 250.095367,348.463806  C253.123688,345.820740 256.093567,343.659027 259.031555,341.454834  C260.446289,340.393402 261.800995,339.251953 263.507996,338.073120  C263.974304,345.560028 264.115479,353.120575 264.628357,360.923828 z"></path><path fill="#DD7BB3" opacity="1.000000" stroke="none" d="M217.061737,57.611526  C213.573563,60.877701 210.027985,63.795788 206.187500,66.882652  C201.369904,62.483414 196.883957,57.852524 190.160263,56.612026  C188.725082,56.347240 187.270325,56.188553 185.411255,55.907463  C185.456604,54.635460 185.615860,53.156841 186.427856,52.288895  C189.337296,49.179005 192.467743,46.275875 195.811966,43.123005  C205.017624,44.884956 211.744034,50.003952 217.061737,57.611526 z"></path><path fill="#80A4D0" opacity="1.000000" stroke="none" d="M175.905334,383.568420  C172.555161,387.227173 169.066254,390.567413 165.234711,393.981201  C160.922760,386.640320 156.953445,379.225830 153.298004,371.400146  C155.336227,369.896637 157.137772,368.907410 158.766861,367.687805  C161.186508,365.876465 163.484116,363.902069 165.833679,361.997040  C169.144638,369.081329 172.455627,376.165619 175.905334,383.568420 z"></path><path fill="#AE90C2" opacity="1.000000" stroke="none" d="M319.531860,90.095970  C321.387787,93.182014 320.410950,95.411140 318.031006,97.568527  C315.857117,99.539108 314.091278,101.959885 312.071655,104.507401  C303.640594,104.881187 295.283508,104.929832 286.462585,104.906082  C288.727386,101.660881 291.467682,98.498032 294.179413,95.310860  C295.432983,93.837471 296.630768,92.316589 297.927887,90.492241  C305.024170,90.119591 312.046417,90.071945 319.531860,90.095970 z"></path><path fill="#5DB3DB" opacity="1.000000" stroke="none" d="M173.042465,458.885162  C178.074203,459.924072 183.114960,460.921570 188.135117,462.013641  C193.031525,463.078827 193.424683,466.810913 192.959274,470.777100  C192.531052,474.426819 190.256546,475.934174 186.568619,476.050781  C178.617874,476.302155 171.124008,474.917694 164.269150,470.139526  C167.205734,465.973083 170.124100,462.429108 173.042465,458.885162 z"></path><path fill="#69AED8" opacity="1.000000" stroke="none" d="M172.903442,458.568787  C170.124100,462.429108 167.205734,465.973083 164.118469,469.811829  C156.055130,466.988953 151.257706,460.708466 147.359863,453.214691  C151.302032,449.826508 155.067886,446.913025 158.833755,443.999542  C162.047272,450.148193 166.568268,455.018951 172.903442,458.568787 z"></path><path fill="#72AAD5" opacity="1.000000" stroke="none" d="M158.767807,443.611938  C155.067886,446.913025 151.302032,449.826508 147.225250,452.887878  C142.417282,445.868561 141.159714,437.907074 142.268143,429.762634  C142.514557,427.952087 145.740967,425.820160 147.981155,425.174042  C151.567688,424.139648 154.935974,425.400513 155.943970,429.588348  C157.028412,434.093964 157.796021,438.675781 158.767807,443.611938 z"></path><path fill="#B68CBF" opacity="1.000000" stroke="none" d="M55.905636,342.573792  C53.123211,346.428650 50.205841,349.972961 47.119820,353.812134  C42.355282,350.230896 37.364277,346.721497 33.304626,342.347656  C30.668396,339.507416 31.306349,335.426453 34.115517,332.510254  C36.528683,330.005096 42.470875,330.424744 45.492794,333.042389  C48.971210,336.055450 52.349129,339.184509 55.905636,342.573792 z"></path><path fill="#CF81B7" opacity="1.000000" stroke="none" d="M11.589013,291.174469  C17.615524,289.941010 20.832113,292.835938 22.250443,297.806183  C23.437090,301.964539 27.767199,305.772217 24.844175,310.439178  C23.576757,312.462769 20.819450,314.533539 18.597721,314.700104  C16.428322,314.862732 13.082052,313.194794 12.014637,311.324646  C9.738693,307.337097 7.949331,302.793671 7.291989,298.283936  C6.987147,296.192566 9.795669,293.647430 11.589013,291.174469 z"></path><path fill="#CF81B7" opacity="1.000000" stroke="none" d="M180.968887,142.639435  C177.834961,146.140701 174.561188,149.328186 171.118622,152.810242  C165.031006,149.708115 159.819672,144.724167 152.218719,144.126709  C155.768646,139.611282 159.447037,135.782272 163.125427,131.953262  C169.026627,135.410736 174.927826,138.868210 180.968887,142.639435 z"></path><path fill="#DD7BB3" opacity="1.000000" stroke="none" d="M214.049957,22.367720  C217.229065,18.557644 220.568069,15.066332 223.976608,11.230875  C229.976883,15.368379 235.907639,19.850027 241.679504,24.810513  C238.002777,28.570112 234.484909,31.850874 230.967041,35.131630  C225.381317,30.983244 219.795593,26.834864 214.049957,22.367720 z"></path><path fill="#8C9FCC" opacity="1.000000" stroke="none" d="M165.903748,361.578003  C163.484116,363.902069 161.186508,365.876465 158.766861,367.687805  C157.137772,368.907410 155.336227,369.896637 153.242310,371.012085  C151.915833,364.869232 150.607681,358.730652 150.122910,352.527740  C149.788361,348.247101 153.448456,345.024841 157.462891,345.002045  C161.476379,344.979248 164.638519,348.153290 165.011520,352.460327  C165.263153,355.365875 165.648346,358.259857 165.903748,361.578003 z"></path><path fill="#9B98C8" opacity="1.000000" stroke="none" d="M85.156815,380.994049  C83.097382,374.853729 81.650055,368.707520 82.921997,362.098724  C83.700951,358.051422 86.771362,354.853668 90.742905,355.004059  C94.940346,355.163025 98.086800,358.753845 98.006790,363.236206  C97.959457,365.888123 97.984322,368.541321 97.579987,371.670410  C95.552216,373.501007 93.985626,374.943817 92.274406,376.187622  C89.960037,377.869751 87.534592,379.399109 85.156815,380.994049 z"></path><path fill="#9899C9" opacity="1.000000" stroke="none" d="M423.999695,34.833096  C426.055237,32.332607 428.152161,29.864586 430.149933,27.318733  C431.247742,25.919737 432.178589,24.389711 433.301544,22.527950  C439.936676,24.177406 444.894989,28.097115 448.057922,34.599350  C444.280121,37.966042 440.448669,40.977779 435.939514,43.854969  C433.626862,38.072605 429.083496,36.110420 423.999695,34.833096 z"></path><path fill="#8C9FCC" opacity="1.000000" stroke="none" d="M107.039993,384.884247  C110.073997,385.914703 113.075600,387.057007 116.150002,387.948090  C120.236900,389.132690 121.917770,392.151245 121.420036,395.906219  C120.908630,399.764252 118.631172,402.205536 114.066460,402.075928  C108.172531,401.908569 102.999474,400.068817 98.168823,396.087158  C101.075539,391.909149 104.057770,388.396698 107.039993,384.884247 z"></path><path fill="#D67EB5" opacity="1.000000" stroke="none" d="M162.923492,131.600067  C159.447037,135.782272 155.768646,139.611282 152.021423,143.786041  C149.461380,144.087357 146.970016,144.050232 144.478989,143.996857  C140.417679,143.909851 137.091492,140.890656 136.999908,137.220001  C136.886795,132.686493 139.851486,128.904373 144.297943,129.116364  C150.459000,129.410080 156.582184,130.498657 162.923492,131.600067 z"></path><path fill="#9899C9" opacity="1.000000" stroke="none" d="M106.910233,384.578705  C104.057770,388.396698 101.075539,391.909149 98.023979,395.765503  C91.692001,393.086639 88.432014,387.408234 85.182655,381.345825  C87.534592,379.399109 89.960037,377.869751 92.274406,376.187622  C93.985626,374.943817 95.552216,373.501007 97.508423,372.073242  C100.815895,376.090820 103.798187,380.181976 106.910233,384.578705 z"></path><path fill="#D67EB5" opacity="1.000000" stroke="none" d="M231.095795,35.437119  C234.484909,31.850874 238.002777,28.570112 241.816071,25.121441  C244.803558,28.182091 247.969696,31.135616 250.048935,34.719681  C251.972702,38.035721 252.039551,41.719090 248.134705,44.516033  C244.277969,47.278538 241.000168,46.315517 238.035019,43.465473  C235.568878,41.095078 233.480347,38.331829 231.095795,35.437119 z"></path><path fill="#69AED8" opacity="1.000000" stroke="none" d="M506.866272,124.740852  C506.588837,124.812935 506.387878,124.581451 506.130402,124.104935  C506.321686,124.088661 506.611267,124.281120 506.866272,124.740852 z"></path><path fill="#4ABCE2" opacity="1.000000" stroke="none" d="M325.002350,361.167145  C329.127594,361.167145 333.252808,361.167145 337.256439,361.167145  C344.147797,339.684326 368.792938,335.010834 381.669739,346.799072  C378.332214,350.565002 375.145599,353.840607 371.571106,357.057953  C363.025116,353.975433 355.603760,356.253052 353.054993,363.675446  C351.799316,367.332184 353.019043,371.838989 352.822205,376.126862  C349.335785,379.565918 346.145752,382.839233 342.955750,386.112549  C340.960297,382.888519 338.964844,379.664520 336.681305,375.975037  C329.881927,375.975037 322.406067,375.975037 314.539429,375.578857  C315.479523,373.574738 316.861145,372.005768 318.130066,370.350403  C320.455902,367.316223 322.715271,364.231049 325.002350,361.167145 z"></path><path fill="#4DBBE1" opacity="1.000000" stroke="none" d="M389.002258,332.833435  C386.299957,328.828430 383.597687,324.823456 380.326965,319.976013  C376.416718,319.976013 371.172882,319.976013 365.539001,319.579437  C368.766968,314.510620 372.384949,309.838379 376.002930,305.166138  C377.812775,305.066010 379.622589,304.965912 381.390900,304.868073  C386.618866,290.208923 395.863892,285.319580 408.148743,284.264862  C415.161926,283.662750 422.144531,286.338135 427.740417,291.868378  C424.460236,296.027069 421.209412,299.571533 417.629395,302.964417  C412.975159,298.365540 405.845032,298.927307 401.533600,301.910889  C395.969666,305.761169 393.244263,313.325745 398.820740,322.125885  C395.350342,325.805756 392.176300,329.319611 389.002258,332.833435 z"></path><path fill="#3CC2E6" opacity="1.000000" stroke="none" d="M343.086273,386.419159  C346.145752,382.839233 349.335785,379.565918 353.133423,376.261963  C354.441864,376.930450 355.116974,377.657776 355.847595,378.324249  C360.820374,382.860474 367.583801,383.083801 372.591553,378.892578  C378.434692,374.002167 379.692871,367.525085 375.801331,361.562317  C374.740417,359.936768 373.251495,358.590546 371.958984,357.116150  C375.145599,353.840607 378.332214,350.565002 381.813721,347.121033  C396.946777,356.821716 395.616333,379.374603 384.142487,389.489655  C373.649597,398.739899 355.587341,399.942993 345.690948,389.176270  C344.906311,388.322601 344.043365,387.540924 343.086273,386.419159 z"></path><path fill="#1DD0F0" opacity="1.000000" stroke="none" d="M445.921326,421.149048  C433.125061,409.787720 432.920288,390.533539 444.482849,379.280823  C454.643555,369.392487 471.212036,367.415894 482.985016,378.408051  C483.434906,378.828094 484.128937,378.986725 484.802795,379.912720  C481.583679,384.077332 478.270905,387.596313 474.632202,390.970093  C471.120026,387.957520 467.562531,385.650421 463.107849,386.464905  C452.864136,388.337860 446.092377,399.940796 455.873901,410.179077  C452.445740,414.033295 449.183533,417.591187 445.921326,421.149048 z"></path><path fill="#40C1E5" opacity="1.000000" stroke="none" d="M417.958588,303.115967  C421.209412,299.571533 424.460236,296.027069 427.879578,292.187805  C439.792694,302.907471 439.591797,320.670654 430.124390,331.398712  C419.401917,343.548950 399.262390,343.961334 389.317749,332.980774  C392.176300,329.319611 395.350342,325.805756 399.143738,322.272705  C403.449677,323.384491 407.382812,325.952057 410.775391,325.369873  C419.957245,323.794189 426.740265,312.942627 417.958588,303.115967 z"></path><path fill="#19D2F1" opacity="1.000000" stroke="none" d="M384.112213,495.955566  C380.837372,499.142731 377.562531,502.329926 374.118835,505.811707  C363.374146,499.287170 362.125153,478.863556 370.163879,469.319611  C374.083405,465.919312 377.596161,462.935822 381.108948,459.952332  C393.426971,454.839752 404.284760,457.231079 413.974976,466.638428  C410.504272,470.149445 406.897430,473.343658 402.798523,476.695099  C399.213379,473.352600 395.381989,471.757416 390.748962,472.703735  C385.112152,473.855042 381.685425,477.610352 380.141388,482.907288  C378.668121,487.961548 381.405640,492.020660 384.112213,495.955566 z"></path><path fill="#76A8D4" opacity="1.000000" stroke="none" d="M295.454254,263.905090  C296.139465,262.249878 297.094269,260.484039 298.448090,259.111847  C307.070526,250.372086 315.797729,241.735794 324.443756,233.019135  C325.707611,231.744949 326.722534,230.223877 327.926147,228.492004  C338.722168,226.874268 347.855225,229.776001 354.635620,238.718140  C350.937927,242.440613 347.447510,245.784210 343.636658,248.967484  C341.155792,243.376831 333.894287,242.193573 329.470886,243.209747  C324.198517,244.420975 320.488129,249.641754 319.890839,254.799774  C319.282898,260.049683 321.723114,263.544159 324.874695,267.180542  C321.806305,271.262360 318.904053,275.047852 316.001831,278.833344  C312.133026,274.234222 308.264221,269.635101 304.395447,265.035980  C304.720673,264.682800 305.045898,264.329620 305.371124,263.976440  C302.216858,263.976440 299.062622,263.976440 295.454254,263.905090 z"></path><path fill="#11D5F4" opacity="1.000000" stroke="none" d="M474.958130,391.115356  C478.270905,387.596313 481.583679,384.077332 484.967285,380.213196  C490.217804,385.031311 492.832306,391.611969 492.834991,398.581604  C492.840027,411.763275 486.030792,423.052887 471.621674,427.013092  C462.200592,429.602448 454.085022,426.499786 446.079163,421.467224  C449.183533,417.591187 452.445740,414.033295 456.213104,410.337952  C460.061646,411.028137 463.613312,413.017120 466.708710,412.462006  C475.404297,410.902496 481.800964,401.245514 474.958130,391.115356 z"></path><path fill="#34C6E8" opacity="1.000000" stroke="none" d="M477.115814,320.958282  C473.570282,324.209137 470.024719,327.459991 466.183746,330.878601  C457.453033,323.314178 453.339813,308.638794 461.110504,296.233582  C464.667847,292.435486 467.854645,289.160126 471.041443,285.884766  C480.976959,280.569977 490.859985,281.056305 500.866028,286.470612  C498.073273,290.585938 495.115723,294.383911 491.702759,298.455780  C488.015656,298.441284 484.348022,297.018372 481.628723,298.063324  C470.542877,302.323395 468.948669,311.456757 477.115814,320.958282 z"></path><path fill="#69AED8" opacity="1.000000" stroke="none" d="M343.957062,249.127808  C347.447510,245.784210 350.937927,242.440613 354.772919,239.028519  C363.285522,248.379257 362.512817,264.599731 354.309082,274.374115  C345.304199,285.103119 327.728210,287.379303 316.330933,278.991638  C318.904053,275.047852 321.806305,271.262360 325.117493,267.241608  C325.685852,267.056030 325.845215,267.105713 326.163177,267.321716  C326.556549,267.690918 326.820831,267.842316 327.520874,267.985840  C333.371521,270.425323 338.166046,268.855743 342.233673,265.143005  C346.470032,261.276337 346.858612,255.807068 343.957062,249.127808 z"></path><path fill="#3CC2E6" opacity="1.000000" stroke="none" d="M298.466980,431.904602  C300.387085,429.004364 302.826996,426.219940 305.133484,423.329041  C306.517395,421.594604 307.692993,419.693970 308.983368,417.517395  C320.355774,417.110809 331.707123,417.017792 343.058136,417.046509  C344.443909,417.050018 345.828064,417.706512 347.189392,418.507446  C343.110565,423.247803 339.055359,427.541077 335.000183,431.834351  C322.977020,431.881439 310.953827,431.928528 298.466980,431.904602 z"></path><path fill="#8C9FCC" opacity="1.000000" stroke="none" d="M278.464386,207.905579  C280.728973,204.660889 283.469086,201.498108 286.180359,198.310837  C287.433685,196.837463 288.630798,195.316269 289.926819,193.491608  C302.024445,193.118973 314.048706,193.071472 326.463135,193.420898  C325.630585,195.317169 324.433167,196.838089 323.179840,198.311432  C320.468719,201.498505 317.728973,204.661194 315.000916,207.833832  C302.976654,207.881714 290.952362,207.929581 278.464386,207.905579 z"></path><path fill="#80A4D0" opacity="1.000000" stroke="none" d="M315.464661,207.905396  C317.728973,204.661194 320.468719,201.498505 323.179840,198.311432  C324.433167,196.838089 325.630585,195.317169 326.926941,193.492798  C338.025085,193.119354 349.049652,193.070938 360.464233,193.419601  C359.631470,195.316162 358.434082,196.837219 357.180695,198.310684  C354.469513,201.497940 351.729584,204.660782 349.001404,207.833633  C337.977081,207.881393 326.952728,207.929169 315.464661,207.905396 z"></path><path fill="#57B6DD" opacity="1.000000" stroke="none" d="M324.538574,361.093933  C322.715271,364.231049 320.455902,367.316223 318.130066,370.350403  C316.861145,372.005768 315.479523,373.574738 314.075745,375.507751  C303.311310,375.880737 292.619843,375.928650 281.464539,375.905090  C283.728668,372.660736 286.468323,369.497803 289.179352,366.310577  C290.432648,364.837097 291.630157,363.316193 292.926605,361.491760  C303.358429,361.118073 313.716644,361.069397 324.538574,361.093933 z"></path><path fill="#76A8D4" opacity="1.000000" stroke="none" d="M349.465088,207.905182  C351.729584,204.660782 354.469513,201.497940 357.180695,198.310684  C358.434082,196.837219 359.631470,195.316162 360.928101,193.491577  C365.655762,193.111191 370.356934,192.641464 374.944427,193.165924  C377.443115,193.451599 379.982330,195.117783 382.081329,196.715576  C384.570740,198.610565 386.606201,201.101944 388.678650,203.812286  C385.332001,207.564560 382.145111,210.839401 378.958252,214.114258  C374.554993,207.930130 368.231262,207.423721 361.409668,207.946274  C357.604248,208.237793 353.757111,207.984497 349.465088,207.905182 z"></path><path fill="#5DB3DB" opacity="1.000000" stroke="none" d="M410.041199,224.882507  C417.290527,232.013504 424.539856,239.144516 431.749268,246.877014  C428.434326,250.666473 425.159302,253.854446 421.884247,257.042419  C414.658539,249.933548 407.432831,242.824677 400.298462,235.156433  C403.606934,231.358871 406.824066,228.120697 410.041199,224.882507 z"></path><path fill="#69AED8" opacity="1.000000" stroke="none" d="M409.912720,224.577133  C406.824066,228.120697 403.606934,231.358871 400.168030,234.850464  C393.036591,228.310760 386.126984,221.517639 379.087799,214.419373  C382.145111,210.839401 385.332001,207.564560 388.813904,204.121460  C396.000671,210.726059 402.892456,217.498901 409.912720,224.577133 z"></path><path fill="#57B6DD" opacity="1.000000" stroke="none" d="M375.539001,305.093323  C372.384949,309.838379 368.766968,314.510620 365.076111,319.507996  C355.645355,319.880920 346.287384,319.928650 336.485535,319.554382  C337.310028,317.306091 338.484070,315.404541 339.868042,313.670502  C342.175476,310.779388 344.617340,307.995544 347.002594,305.166565  C356.360107,305.117889 365.717590,305.069214 375.539001,305.093323 z"></path><path fill="#4DBBE1" opacity="1.000000" stroke="none" d="M422.021423,257.351318  C425.159302,253.854446 428.434326,250.666473 431.877502,247.183273  C438.628143,253.351929 445.210663,259.815796 451.772369,266.898865  C448.464294,270.693939 445.177063,273.869751 441.889801,277.045593  C435.312714,270.583801 428.735626,264.122009 422.021423,257.351318 z"></path><path fill="#26CCED" opacity="1.000000" stroke="none" d="M380.970734,459.631958  C377.596161,462.935822 374.083405,465.919312 370.226074,468.971008  C364.310669,462.251007 358.739838,455.462860 353.340515,448.211670  C357.018158,444.462585 360.524292,441.176514 364.030426,437.890472  C369.631134,445.030853 375.231812,452.171234 380.970734,459.631958 z"></path><path fill="#69AED8" opacity="1.000000" stroke="none" d="M282.463165,319.904297  C284.543579,316.831238 287.153076,313.881744 289.604828,310.806488  C290.834625,309.263947 291.777222,307.492462 292.924744,305.495239  C302.024139,305.117920 311.048462,305.069824 320.462921,305.419220  C318.817413,308.129120 316.667389,310.352600 314.779602,312.780060  C313.039734,315.017273 311.581635,317.473633 309.999451,319.833496  C300.975342,319.880981 291.951202,319.928467 282.463165,319.904297 z"></path><path fill="#34C6E8" opacity="1.000000" stroke="none" d="M363.903931,437.574524  C360.524292,441.176514 357.018158,444.462585 353.198975,447.896240  C349.912170,444.323853 346.909210,440.626740 343.974487,436.876221  C341.862793,434.177551 339.906616,431.300140 335.397278,431.905670  C339.055359,427.541077 343.110565,423.247803 347.522614,418.787109  C351.130127,422.135956 354.472229,425.573334 357.600342,429.195465  C359.809570,431.753448 361.728790,434.561920 363.903931,437.574524 z"></path><path fill="#40C1E5" opacity="1.000000" stroke="none" d="M442.025635,277.354492  C445.177063,273.869751 448.464294,270.693939 451.900146,267.205750  C458.295074,273.019562 464.541382,279.145691 470.914551,285.578308  C467.854645,289.160126 464.667847,292.435486 461.185974,295.878906  C454.647705,289.919098 448.404572,283.791229 442.025635,277.354492 z"></path><path fill="#60B2DB" opacity="1.000000" stroke="none" d="M310.463379,319.904907  C311.581635,317.473633 313.039734,315.017273 314.779602,312.780060  C316.667389,310.352600 318.817413,308.129120 320.926636,305.491638  C329.358368,305.118164 337.716553,305.069763 346.538635,305.093964  C344.617340,307.995544 342.175476,310.779388 339.868042,313.670502  C338.484070,315.404541 337.310028,317.306091 336.021820,319.482910  C327.643799,319.881073 319.285583,319.928680 310.463379,319.904907 z"></path><path fill="#5DB3DB" opacity="1.000000" stroke="none" d="M445.002991,229.833542  C438.799835,224.525024 436.012390,217.350922 436.164398,209.630936  C436.431061,196.090454 443.492737,185.963181 457.292053,181.999786  C464.458221,179.941559 471.116577,181.438248 477.700317,184.858246  C474.473602,189.264816 471.236237,193.049591 467.615662,196.772278  C463.017456,194.784225 459.488922,196.832642 456.460022,199.186691  C450.104004,204.126633 449.859802,209.728638 454.821472,219.138535  C451.402863,222.874115 448.202942,226.353836 445.002991,229.833542 z"></path><path fill="#4DBBE1" opacity="1.000000" stroke="none" d="M445.320251,229.983032  C448.202942,226.353836 451.402863,222.874115 455.151001,219.291489  C465.037720,227.280396 478.510406,219.667786 478.122498,206.815765  C482.137939,203.347382 485.985901,200.174622 489.833862,197.001862  C497.811737,213.642014 489.295868,231.327347 472.547729,236.541397  C462.933807,239.534409 453.345764,237.570312 445.320251,229.983032 z"></path><path fill="#57B6DD" opacity="1.000000" stroke="none" d="M489.806030,196.654175  C485.985901,200.174622 482.137939,203.347382 477.797913,206.643494  C476.166168,201.616989 473.048157,198.320847 467.998871,196.834366  C471.236237,193.049591 474.473602,189.264816 477.879333,185.184937  C483.718323,186.886505 486.983795,191.354477 489.806030,196.654175 z"></path><path fill="#000000" opacity="1.000000" stroke="none" d="M477.450195,321.112427  C468.948669,311.456757 470.542877,302.323395 481.628723,298.063324  C484.348022,297.018372 488.015656,298.441284 491.630005,298.780670  C497.576599,302.663910 499.307739,308.340973 497.661285,314.346771  C496.229828,319.568207 491.971069,323.073547 486.219879,323.186188  C483.421692,323.240997 480.597168,321.948944 477.450195,321.112427 z"></path><path fill="#000000" opacity="1.000000" stroke="none" d="M384.489105,495.980560  C381.405640,492.020660 378.668121,487.961548 380.141388,482.907288  C381.685425,477.610352 385.112152,473.855042 390.748962,472.703735  C395.381989,471.757416 399.213379,473.352600 402.633240,476.992859  C407.509247,483.674805 407.244934,488.950592 402.469269,494.920685  C398.498444,499.884705 391.079712,500.160400 384.489105,495.980560 z"></path><path fill="#000000" opacity="1.000000" stroke="none" d="M476.368835,153.037674  C469.143219,143.825256 471.168365,135.469849 481.388489,130.902939  C486.358215,128.682205 490.400513,130.774124 494.558014,133.893219  C500.896423,143.112778 497.880981,150.364594 492.457886,154.049271  C487.259644,157.581177 481.984680,157.360229 476.368835,153.037674 z"></path><path fill="#000000" opacity="1.000000" stroke="none" d="M423.608826,34.904526  C429.083496,36.110420 433.626862,38.072605 435.570984,43.879112  C436.329742,55.506222 433.786224,59.352764 424.255890,61.258984  C422.833984,61.543388 421.270599,61.120544 419.385620,61.095963  C414.253632,58.735962 410.997284,55.128460 409.905670,49.376099  C410.594055,41.174763 415.572388,35.958935 423.608826,34.904526 z"></path><path fill="#000000" opacity="1.000000" stroke="none" d="M371.571106,357.057922  C373.251495,358.590546 374.740417,359.936768 375.801331,361.562317  C379.692871,367.525085 378.434692,374.002167 372.591553,378.892578  C367.583801,383.083801 360.820374,382.860474 355.847595,378.324249  C355.116974,377.657776 354.441864,376.930450 353.429840,376.096222  C353.019043,371.838989 351.799316,367.332184 353.054993,363.675446  C355.603760,356.253052 363.025116,353.975433 371.571106,357.057922 z"></path><path fill="#000000" opacity="1.000000" stroke="none" d="M417.629395,302.964417  C426.740265,312.942627 419.957245,323.794189 410.775391,325.369873  C407.382812,325.952057 403.449677,323.384491 399.440094,322.106689  C393.244263,313.325745 395.969666,305.761169 401.533600,301.910889  C405.845032,298.927307 412.975159,298.365540 417.629395,302.964417 z"></path><path fill="#000000" opacity="1.000000" stroke="none" d="M474.632202,390.970093  C481.800964,401.245514 475.404297,410.902496 466.708710,412.462006  C463.613312,413.017120 460.061646,411.028137 456.379089,410.041626  C446.092377,399.940796 452.864136,388.337860 463.107849,386.464905  C467.562531,385.650421 471.120026,387.957520 474.632202,390.970093 z"></path><path fill="#000000" opacity="1.000000" stroke="none" d="M343.636658,248.967484  C346.858612,255.807068 346.470032,261.276337 342.233673,265.143005  C338.166046,268.855743 333.371521,270.425323 327.431854,267.733521  C326.625885,267.343567 326.315247,267.249481 326.004578,267.155396  C325.845215,267.105713 325.685852,267.056030 325.283661,266.945251  C321.723114,263.544159 319.282898,260.049683 319.890839,254.799774  C320.488129,249.641754 324.198517,244.420975 329.470886,243.209747  C333.894287,242.193573 341.155792,243.376831 343.636658,248.967484 z"></path><path fill="#76A8D4" opacity="1.000000" stroke="none" d="M326.163177,267.321716  C326.315247,267.249481 326.625885,267.343567 327.025574,267.689941  C326.820831,267.842316 326.556549,267.690918 326.163177,267.321716 z"></path><path fill="#000000" opacity="1.000000" stroke="none" d="M467.615662,196.772278  C473.048157,198.320847 476.166168,201.616989 477.630463,206.939117  C478.510406,219.667786 465.037720,227.280396 455.369659,219.035614  C449.859802,209.728638 450.104004,204.126633 456.460022,199.186691  C459.488922,196.832642 463.017456,194.784225 467.615662,196.772278 z"></path></svg>